<svg width="18" height="18" viewBox="0 0 18 18" fill="none" xmlns="http://www.w3.org/2000/svg">
<g clip-path="url(#clip0_539_1803)">
<path fill-rule="evenodd" clip-rule="evenodd" d="M9 7.63586L16.353 0.281571C16.5407 0.0938568 16.7889 0 17.0357 0C17.5551 0 18 0.416571 18 0.963C18 1.21114 17.9061 1.458 17.7184 1.647L10.3641 9L17.7171 16.353C17.9061 16.542 18 16.7889 18 17.0357C18 17.5847 17.5513 18 17.0357 18C16.7889 18 16.5407 17.9061 16.353 17.7184L9 10.3654L1.647 17.7184C1.45929 17.9061 1.21114 18 0.964286 18C0.448714 18 0 17.5847 0 17.0357C0 16.7889 0.0938568 16.542 0.282857 16.353L7.63586 9L0.281571 1.647C0.0938568 1.458 0 1.21114 0 0.963C0 0.416571 0.444859 0 0.964286 0C1.21114 0 1.45929 0.0938568 1.647 0.281571L9 7.63586Z" fill="#969596"/>
</g>
<defs>
<clipPath id="clip0_539_1803">
<rect width="18" height="18" fill="white"/>
</clipPath>
</defs>
</svg>
