<svg width="19" height="19" viewBox="0 0 19 19" fill="none" xmlns="http://www.w3.org/2000/svg">
<path fill-rule="evenodd" clip-rule="evenodd" d="M9.5 0C14.7432 0 19 4.25679 19 9.5C19 14.7432 14.7432 19 9.5 19C4.25679 19 0 14.7432 0 9.5C0 4.25679 4.25679 0 9.5 0ZM9.5 0.791667C14.3062 0.791667 18.2083 4.69379 18.2083 9.5C18.2083 14.3062 14.3062 18.2083 9.5 18.2083C4.69379 18.2083 0.791667 14.3062 0.791667 9.5C0.791667 4.69379 4.69379 0.791667 9.5 0.791667ZM9.54196 14.25C9.91088 14.25 10.2101 13.9508 10.2101 13.581C10.2101 13.2121 9.91088 12.9129 9.54196 12.9129C9.17304 12.9129 8.873 13.2121 8.873 13.581C8.873 13.9508 9.17304 14.25 9.54196 14.25ZM9.91246 12.0159H9.12238C9.09467 11.096 9.26646 10.3898 9.86575 9.68604C10.2545 9.23479 11.138 8.51517 11.4055 8.05679C11.9771 7.08383 11.4665 5.54167 9.60767 5.54167C8.46846 5.54167 7.53746 6.23596 7.28967 7.52638L6.48375 7.44562C6.70542 5.67546 8.03383 4.75 9.58867 4.75C11.1435 4.75 12.4505 5.73958 12.4505 7.29917C12.4505 8.72892 11.005 9.50158 10.3621 10.3613C10.028 10.807 9.92275 11.4515 9.91246 12.0159Z" fill="#969596"/>
</svg>
