<svg width="39" height="31" viewBox="0 0 39 31" fill="none" xmlns="http://www.w3.org/2000/svg">
<g clip-path="url(#clip0_522_2365)">
<path d="M11 15.5004L14.891 18L14.891 16.1254L39 16.1254L39 14.8753L14.891 14.8753L14.891 13L11 15.5004Z" fill="#9A9565"/>
<g opacity="0.3">
<path d="M27.1519 23.9141C25.333 26.49 22.7278 28.4112 19.7245 29.3914C16.7212 30.3717 13.4805 30.3585 10.4853 29.3539C7.49011 28.3493 4.90072 26.407 3.10295 23.8164C1.30518 21.2259 0.395275 18.1257 0.508795 14.9778C0.622315 11.83 1.75319 8.80292 3.73292 6.34769C5.71265 3.89247 8.43526 2.1405 11.4951 1.35282C14.5549 0.565145 17.7882 0.783925 20.7132 1.97656C23.6381 3.1692 26.0982 5.27186 27.7269 7.97125L28.7728 7.97125C27.1221 5.00574 24.5416 2.66138 21.4266 1.29728C18.3115 -0.0668246 14.8337 -0.375448 11.5258 0.418724C8.21797 1.2129 5.26255 3.06606 3.1123 5.6943C0.96205 8.32254 -0.264451 11.5809 -0.379313 14.9703C-0.494175 18.3597 0.508937 21.6931 2.47635 24.46C4.44377 27.2269 7.26699 29.2746 10.5135 30.2894C13.7601 31.3043 17.2509 31.2303 20.4512 30.0788C23.6515 28.9273 26.3848 26.7618 28.2325 23.9141L27.1519 23.9141Z" fill="#969596"/>
</g>
</g>
<defs>
<clipPath id="clip0_522_2365">
<rect width="39" height="31" fill="white" transform="translate(39 31) rotate(-180)"/>
</clipPath>
</defs>
</svg>
