<svg width="39" height="31" viewBox="0 0 39 31" fill="none" xmlns="http://www.w3.org/2000/svg">
<g clip-path="url(#clip0_522_2360)">
<path d="M28 15.4996L24.109 13V14.8746H0V16.1247H24.109V18L28 15.4996Z" fill="#9A9565"/>
<g opacity="0.3">
<path d="M11.8482 7.0859C13.6671 4.51003 16.2723 2.58884 19.2756 1.6086C22.2789 0.628351 25.5196 0.641506 28.5148 1.64611C31.51 2.65072 34.0994 4.593 35.8972 7.18356C37.6949 9.77412 38.6048 12.8743 38.4913 16.0222C38.3778 19.17 37.2469 22.1971 35.2672 24.6523C33.2875 27.1075 30.5649 28.8595 27.505 29.6472C24.4452 30.4349 21.2119 30.2161 18.2869 29.0234C15.362 27.8308 12.9019 25.7281 11.2733 23.0288H10.2274C11.878 25.9943 14.4585 28.3386 17.5736 29.7027C20.6886 31.0668 24.1665 31.3754 27.4743 30.5813C30.7821 29.7871 33.7376 27.9339 35.8878 25.3057C38.0381 22.6775 39.2646 19.4191 39.3794 16.0297C39.4943 12.6403 38.4912 9.30688 36.5238 6.54C34.5563 3.77314 31.7331 1.72542 28.4866 0.710585C25.2401 -0.304255 21.7492 -0.230251 18.5489 0.921228C15.3486 2.07271 12.6153 4.23817 10.7676 7.0859H11.8482Z" fill="#969596"/>
</g>
</g>
<defs>
<clipPath id="clip0_522_2360">
<rect width="39" height="31" fill="white"/>
</clipPath>
</defs>
</svg>
