
<svg width="37" height="36" viewBox="0 0 37 36" fill="currentColor" xmlns="http://www.w3.org/2000/svg">
    <path d="M23.2756 18.6944H36.5568C36.6139 18.6944 36.6602 18.6481 36.6602 18.591V17.4088C36.6602 17.3517 36.6139 17.3055 36.5568 17.3055H23.2756C23.2132 17.3055 23.1653 17.3602 23.1732 17.4222C23.1972 17.6113 23.2096 17.8042 23.2096 17.9999C23.2096 18.1956 23.1972 18.3885 23.1732 18.5777C23.1654 18.6395 23.2132 18.6944 23.2756 18.6944Z" />
    <path d="M14.0447 17.3055H0.76349C0.706406 17.3055 0.660156 17.3517 0.660156 17.4088V18.591C0.660156 18.6481 0.706406 18.6944 0.76349 18.6944H14.0447C14.1071 18.6944 14.155 18.6397 14.1471 18.5777C14.1231 18.3885 14.1107 18.1956 14.1107 17.9999C14.1107 17.8042 14.1231 17.6113 14.1471 17.4222C14.1549 17.3603 14.1071 17.3055 14.0447 17.3055Z" />
    <path d="M19.3546 13.3846V0.103333C19.3546 0.04625 19.3084 0 19.2513 0H18.0691C18.012 0 17.9657 0.04625 17.9657 0.103333V13.3846C17.9657 13.4469 18.0205 13.4949 18.0824 13.4869C18.2716 13.4629 18.4645 13.4506 18.6602 13.4506C18.8559 13.4506 19.0488 13.4629 19.238 13.4869C19.2998 13.4947 19.3546 13.4469 19.3546 13.3846Z" />
    <path d="M17.9657 22.6154V35.8967C17.9657 35.9538 18.012 36 18.0691 36H19.2513C19.3084 36 19.3546 35.9538 19.3546 35.8967V22.6154C19.3546 22.5531 19.2999 22.5051 19.238 22.5131C19.0488 22.5371 18.8559 22.5494 18.6602 22.5494C18.4645 22.5494 18.2716 22.5371 18.0824 22.5131C18.0206 22.5053 17.9657 22.5531 17.9657 22.6154Z" />
    <path d="M14.9061 20.772L5.51441 30.1637C5.47399 30.2041 5.47399 30.2695 5.51441 30.3098L6.35038 31.1457C6.3908 31.1862 6.45621 31.1862 6.49649 31.1457L15.8882 21.7541C15.9323 21.7099 15.9273 21.6374 15.878 21.5992C15.5723 21.3625 15.2976 21.0878 15.0609 20.7821C15.0227 20.7328 14.9501 20.728 14.9061 20.772Z" />
    <path d="M22.4143 15.228L31.8059 5.83634C31.8464 5.79592 31.8464 5.7305 31.8059 5.69022L30.97 4.85425C30.9296 4.81384 30.8641 4.81384 30.8239 4.85425L21.4322 14.2459C21.388 14.2901 21.393 14.3626 21.4423 14.4008C21.748 14.6374 22.0228 14.9122 22.2594 15.2179C22.2976 15.2672 22.3703 15.272 22.4143 15.228Z" />
    <path d="M15.8882 14.2459L6.49649 4.85425C6.45608 4.81384 6.39066 4.81384 6.35038 4.85425L5.51441 5.69022C5.47399 5.73064 5.47399 5.79606 5.51441 5.83634L14.9061 15.228C14.9502 15.2722 15.0227 15.2672 15.0609 15.2179C15.2976 14.9122 15.5723 14.6374 15.878 14.4008C15.9273 14.3626 15.9322 14.2899 15.8882 14.2459Z" />
    <path d="M21.4322 21.7541L30.8239 31.1458C30.8643 31.1862 30.9297 31.1862 30.97 31.1458L31.806 30.3098C31.8464 30.2694 31.8464 30.204 31.806 30.1637L22.4143 20.772C22.3701 20.7279 22.2976 20.7329 22.2595 20.7822C22.0228 21.0879 21.7481 21.3626 21.4424 21.5993C21.3931 21.6375 21.3882 21.7101 21.4322 21.7541Z" />
    <path d="M7.34736 22.0463L7.79972 23.1385C7.82153 23.1913 7.88209 23.2163 7.93472 23.1945L17.2338 19.3427C17.2988 19.3158 17.3181 19.2335 17.2725 19.1799C17.0317 18.897 16.876 18.5395 16.8447 18.1469C16.8392 18.077 16.7671 18.0327 16.7022 18.0596L7.40334 21.9114C7.35056 21.9333 7.32556 21.9937 7.34736 22.0463Z" />
    <path d="M29.9729 13.954L29.5206 12.8618C29.4988 12.809 29.4382 12.784 29.3856 12.8058L20.0866 16.6576C20.0216 16.6846 20.0023 16.7668 20.0478 16.8204C20.2886 17.1033 20.4443 17.4608 20.4756 17.8535C20.4811 17.9233 20.5532 17.9676 20.6181 17.9407L29.917 14.0889C29.9698 14.0671 29.9948 14.0067 29.9729 13.954Z" />
    <path d="M14.614 6.68735L13.5218 7.13971C13.469 7.16151 13.444 7.22207 13.4658 7.27471L17.3176 16.5737C17.3446 16.6387 17.4268 16.658 17.4804 16.6125C17.7633 16.3717 18.1209 16.216 18.5134 16.1847C18.5833 16.1792 18.6276 16.1071 18.6007 16.0422L14.7489 6.74318C14.7271 6.6904 14.6666 6.66554 14.614 6.68735Z" />
    <path d="M22.7063 29.3129L23.7985 28.8605C23.8513 28.8387 23.8763 28.7782 23.8545 28.7255L20.0027 19.4265C19.9757 19.3615 19.8935 19.3422 19.8399 19.3877C19.557 19.6286 19.1993 19.7843 18.8068 19.8155C18.737 19.8211 18.6927 19.8932 18.7196 19.958L22.5714 29.257C22.5932 29.3098 22.6536 29.3347 22.7063 29.3129Z" />
    <path d="M23.7985 7.13957L22.7063 6.68721C22.6535 6.6654 22.5931 6.6904 22.5713 6.74318L18.7195 16.0422C18.6927 16.1071 18.7368 16.1792 18.8067 16.1847C19.1993 16.216 19.5568 16.3718 19.8398 16.6125C19.8934 16.658 19.9756 16.6387 20.0025 16.5737L23.8543 7.27471C23.8761 7.22193 23.8513 7.16137 23.7985 7.13957Z" />
    <path d="M13.5218 28.8607L14.614 29.313C14.6668 29.3348 14.7272 29.3098 14.749 29.257L18.6008 19.958C18.6277 19.8932 18.5835 19.8211 18.5136 19.8155C18.121 19.7843 17.7635 19.6284 17.4806 19.3877C17.427 19.3422 17.3447 19.3615 17.3178 19.4265L13.466 28.7255C13.4442 28.7783 13.469 28.8389 13.5218 28.8607Z" />
    <path d="M7.7999 12.8617L7.34754 13.9539C7.32574 14.0067 7.35074 14.0671 7.40351 14.0889L16.7024 17.9407C16.7673 17.9675 16.8394 17.9233 16.8449 17.8535C16.8762 17.4608 17.032 17.1033 17.2727 16.8204C17.3182 16.7668 17.2989 16.6846 17.2339 16.6576L7.93491 12.8058C7.88213 12.784 7.82171 12.8089 7.7999 12.8617Z" />
    <path d="M20.0866 19.3428L29.3856 23.1946C29.4384 23.2164 29.4988 23.1914 29.5206 23.1386L29.9729 22.0464C29.9948 21.9936 29.9698 21.9332 29.917 21.9114L20.6181 18.0596C20.5532 18.0328 20.4811 18.0769 20.4756 18.1468C20.4443 18.5394 20.2885 18.897 20.0478 19.1799C20.0023 19.2335 20.0216 19.3158 20.0866 19.3428Z" />
</svg>
