<svg width="353" height="153" viewBox="0 0 353 153" fill="none" xmlns="http://www.w3.org/2000/svg">
<g clip-path="url(#clip0_105_2417)">
<path d="M14.0306 56.956C14.0306 62.126 16.2124 63.2273 24.4351 63.9055V66.363H0V64.075C6.20904 63.3128 6.14288 62.8883 6.14288 58.0573V15.171C6.14288 10.34 6.20904 9.91545 0 9.15324V6.86523H20.9109C36.0138 6.86523 43.1463 15.0869 43.1463 24.2403C43.1463 34.6659 35.847 42.0385 21.2472 42.0385H14.0306V56.956ZM14.0306 39.2419H19.5685C30.1411 39.2419 34.5032 33.9023 34.5032 24.5793C34.5032 16.5272 30.1397 9.66184 19.5685 9.66184H14.0306V39.2419Z" fill="#FAF6EE"/>
<path d="M75.1142 56.957C75.1142 60.6868 75.9535 62.5516 78.3861 62.5516C79.7286 62.5516 80.9869 62.043 82.2453 61.4503L82.6643 62.7212C80.6506 65.7727 77.7976 67.2131 74.6097 67.2131C70.4984 67.2131 68.0658 64.247 67.6454 59.5C64.7083 62.9748 60.0099 67.2131 54.1371 67.2131C47.5932 67.2131 43.4805 62.8907 43.4805 56.618C43.4805 49.499 48.7661 46.5315 55.3955 43.9898L67.4773 39.4125V33.6483C67.4773 27.8001 65.2955 23.5618 59.7577 23.5618C54.9751 23.5618 52.9615 26.783 52.9615 31.1054C52.9615 32.5457 53.1296 33.8179 53.5486 35.5132L49.101 36.1913C47.0033 35.5132 45.829 33.9033 45.829 31.5299C45.829 25.1731 52.373 21.4434 60.8479 21.4434C70.4129 21.4434 75.1114 25.5962 75.1114 34.496V56.957H75.1142ZM67.4786 57.7206V41.7859L57.4105 45.9388C53.2151 47.6341 50.7825 50.0076 50.7825 54.4995C50.7825 58.9914 53.2992 62.2126 58.0817 62.2126C61.5218 62.2126 64.0385 60.6027 67.4786 57.7206Z" fill="#FAF6EE"/>
<path d="M97.3454 59.9218C97.3454 63.227 99.275 63.9051 104.813 64.1601V66.364H84.0039V64.1601C88.4515 63.9051 89.794 63.2284 89.794 59.9218V29.5796L84.3402 26.6134V25.6817L96.6742 21.4434H97.6817L97.3454 33.4788C101.96 24.834 103.973 21.4434 108.673 21.4434C110.184 21.4434 111.274 22.036 111.861 22.7996V29.1564H110.687C105.568 29.1564 102.045 29.5809 97.3454 35.3437V59.9232V59.9218Z" fill="#FAF6EE"/>
<path d="M144.333 56.957C144.333 60.6868 145.172 62.5516 147.605 62.5516C148.947 62.5516 150.206 62.043 151.464 61.4503L151.883 62.7212C149.869 65.7727 147.016 67.2131 143.828 67.2131C139.717 67.2131 137.285 64.247 136.864 59.5C133.927 62.9748 129.229 67.2131 123.356 67.2131C116.812 67.2131 112.699 62.8907 112.699 56.618C112.699 49.499 117.985 46.5315 124.614 43.9898L136.696 39.4125V33.6483C136.696 27.8001 134.514 23.5618 128.976 23.5618C124.194 23.5618 122.18 26.783 122.18 31.1054C122.18 32.5457 122.348 33.8179 122.767 35.5132L118.32 36.1913C116.222 35.5132 115.048 33.9033 115.048 31.5299C115.048 25.1731 121.592 21.4434 130.067 21.4434C139.632 21.4434 144.33 25.5962 144.33 34.496V56.957H144.333ZM136.697 57.7206V41.7859L126.629 45.9388C122.434 47.6341 120.001 50.0076 120.001 54.4995C120.001 58.9914 122.518 62.2126 127.3 62.2126C130.741 62.2126 133.257 60.6027 136.697 57.7206Z" fill="#FAF6EE"/>
<path d="M171.686 61.194C177.224 61.194 181.083 58.5669 183.936 54.1591L184.942 54.6677C182.425 62.6343 176.971 67.2117 169.252 67.2117C158.428 67.2117 150.961 58.651 150.961 45.8533C150.961 31.953 158.765 21.4434 171.267 21.4434C179.155 21.4434 183.769 24.9181 183.769 30.4272C183.769 32.6311 182.763 34.6655 181.084 35.5973H176.302C176.47 34.6655 176.636 33.6483 176.636 32.0371C176.636 27.9683 175.21 24.0704 169.756 24.0704C162.205 24.0704 157.674 32.0371 157.674 42.1236C157.674 53.4809 163.044 61.194 171.687 61.194H171.686Z" fill="#FAF6EE"/>
<path d="M221.776 38.2257V40.0051H193.919C193.332 53.7359 200.044 61.533 208.769 61.533C214.81 61.533 218.419 58.651 221.356 53.9895L222.362 54.4981C220.348 61.8721 214.558 67.2117 205.832 67.2117C193.917 67.2117 187.121 57.4643 187.121 45.5983C187.121 31.698 195.176 21.4434 206 21.4434C216.825 21.4434 221.775 28.7319 221.775 38.2244L221.776 38.2257ZM194.171 37.5476H214.477C214.477 29.92 211.876 24.1559 205.331 24.1559C198.785 24.1559 195.01 30.0041 194.171 37.5476Z" fill="#FAF6EE"/>
<path d="M236.207 59.9223C236.207 63.2275 237.55 63.9056 241.997 64.1606V66.3645H222.867V64.1606C227.315 63.9056 228.657 63.2289 228.657 59.9223V8.1362L223.203 5.17006V4.23832L235.2 0H236.207V59.9223Z" fill="#FAF6EE"/>
<path d="M244.429 63.0588L243.926 51.3625H246.192C248.289 59.0755 252.317 64.8383 258.862 64.8383C263.813 64.8383 267.672 62.2953 267.672 56.9557C267.672 52.0392 264.567 49.9207 257.099 46.9546C248.708 43.6494 244.597 40.5137 244.597 33.3934C244.597 26.273 250.051 21.4434 258.442 21.4434C263.643 21.4434 267.754 22.7996 271.195 25.0035V35.2596H269.181C267.502 28.7333 264.146 23.8182 258.021 23.8182C253.155 23.8182 250.554 26.7843 250.554 30.8531C250.554 35.261 253.239 37.549 260.706 40.3456C268.761 43.3972 273.795 46.8719 273.795 54.1604C273.795 62.2966 267.754 67.2131 258.524 67.2131C252.818 67.2131 247.533 65.5178 244.429 63.0602V63.0588Z" fill="#FAF6EE"/>
<path d="M313.733 58.1422C313.733 61.0243 313.901 61.6169 317.676 62.0415L319.858 62.2951V64.0745L307.187 67.2101H305.929L306.264 59.2435C302.237 63.3123 297.789 67.2101 291.916 67.2101C284.7 67.2101 280.422 63.2268 280.422 53.988V30.5111C280.422 27.4595 279.75 26.6119 275.807 26.1033L274.465 25.9337V23.9848L287.386 21.6113H288.309L287.89 30.8502V52.4635C287.89 58.6508 290.156 62.211 295.358 62.211C299.721 62.211 303.077 59.923 306.265 57.38V30.5125C306.265 27.4609 305.678 26.6132 301.651 26.1046L300.393 25.9351V23.9862L313.146 21.6127H314.069L313.733 30.5125V58.1436V58.1422Z" fill="#FAF6EE"/>
<path d="M323.632 63.0588L323.129 51.3625H325.395C327.492 59.0755 331.52 64.8383 338.065 64.8383C343.016 64.8383 346.875 62.2953 346.875 56.9557C346.875 52.0392 343.77 49.9207 336.302 46.9546C327.911 43.6494 323.8 40.5137 323.8 33.3934C323.8 26.273 329.254 21.4434 337.645 21.4434C342.846 21.4434 346.958 22.7996 350.398 25.0035V35.2596H348.384C346.705 28.7333 343.349 23.8182 337.224 23.8182C332.358 23.8182 329.757 26.7843 329.757 30.8531C329.757 35.261 332.442 37.549 339.909 40.3456C347.964 43.3972 352.998 46.8719 352.998 54.1604C352.998 62.2966 346.958 67.2131 337.727 67.2131C332.021 67.2131 326.736 65.5178 323.632 63.0602V63.0588Z" fill="#FAF6EE"/>
<path d="M35.5502 125.087C35.5502 129.918 36.7244 130.342 42.9335 131.104V133.392H21.5195V131.104C27.7286 130.342 27.6624 129.918 27.6624 125.087V82.2003C27.6624 77.3693 27.7286 76.9447 21.5195 76.1825V73.8945H42.7653C57.0289 73.8945 64.0773 80.6745 64.0773 90.0828C64.0773 99.9998 55.5183 104.915 49.2266 106.102L62.9871 123.985C67.0143 129.241 69.7833 131.02 74.4817 131.104V133.392H61.9796C59.547 131.697 57.5319 129.239 55.0153 125.849L41.3388 107.372H35.5488V125.087H35.5502ZM35.5502 76.6911V104.576H41.2561C51.1575 104.576 55.6038 99.2362 55.6038 90.0828C55.6038 82.7943 51.0734 76.6911 40.9198 76.6911H35.5502Z" fill="#FAF6EE"/>
<path d="M107.038 105.253V107.032H79.1809C78.5938 120.763 85.3059 128.56 94.0316 128.56C100.073 128.56 103.681 125.678 106.618 121.017L107.625 121.525C105.612 128.899 99.8217 134.239 91.096 134.239C79.1809 134.239 72.3848 124.492 72.3848 112.626C72.3848 98.7254 80.4393 88.4707 91.2641 88.4707C102.089 88.4707 107.038 95.7592 107.038 105.252V105.253ZM79.4332 104.575H99.739C99.739 96.9473 97.1382 91.1832 90.5929 91.1832C84.0476 91.1832 80.2725 97.0314 79.4332 104.575Z" fill="#FAF6EE"/>
<path d="M129.272 128.221C134.81 128.221 138.669 125.594 141.522 121.186L142.53 121.695C140.013 129.662 134.559 134.239 126.84 134.239C116.016 134.239 108.549 125.678 108.549 112.881C108.549 98.9804 116.353 88.4707 128.855 88.4707C136.742 88.4707 141.357 91.9454 141.357 97.4546C141.357 99.6585 140.349 101.693 138.672 102.625H133.889C134.058 101.693 134.224 100.676 134.224 99.0644C134.224 94.9956 132.798 91.0978 127.344 91.0978C119.793 91.0978 115.262 99.0644 115.262 109.151C115.262 120.508 120.632 128.221 129.275 128.221H129.272Z" fill="#FAF6EE"/>
<path d="M144.188 112.456C144.188 97.8777 152.997 88.4707 164.157 88.4707C175.904 88.4707 183.624 97.4546 183.624 110.254C183.624 124.832 174.814 134.239 163.654 134.239C151.907 134.239 144.188 125.425 144.188 112.456ZM175.652 112.372C175.652 101.184 171.877 91.0978 163.737 91.0978C156.269 91.0978 152.158 98.8949 152.158 110.338C152.158 121.78 155.934 131.612 164.073 131.612C171.54 131.612 175.652 123.815 175.652 112.372Z" fill="#FAF6EE"/>
<path d="M224.084 92.0599C220.979 92.8179 220.56 93.4079 219.805 95.1762L203.947 134.501H202.101L184.901 95.1762C184.145 93.4079 183.726 92.8179 180.621 92.0599V89.8711H199.248V92.0599C195.053 92.5657 193.375 92.8179 193.375 94.8385C193.375 95.5125 193.544 96.1852 193.879 97.1968L205.038 124.563L215.778 97.1128C216.197 96.0184 216.365 95.5125 216.365 94.8385C216.365 92.8179 214.686 92.6498 210.408 92.0599V89.8711H224.084V92.0599Z" fill="#FAF6EE"/>
<path d="M256.22 105.253V107.032H228.363C227.775 120.763 234.488 128.56 243.213 128.56C249.254 128.56 252.862 125.678 255.8 121.017L256.807 121.525C254.793 128.899 249.003 134.239 240.278 134.239C228.363 134.239 221.566 124.492 221.566 112.626C221.566 98.7254 229.621 88.4707 240.446 88.4707C251.271 88.4707 256.22 95.7592 256.22 105.252V105.253ZM228.615 104.575H248.921C248.921 96.9473 246.32 91.1832 239.775 91.1832C233.229 91.1832 229.454 97.0314 228.615 104.575Z" fill="#FAF6EE"/>
<path d="M270.818 126.951C270.818 130.256 272.748 130.934 278.285 131.189V133.393H257.477V131.189C261.924 130.934 263.267 130.258 263.267 126.951V96.6088L257.813 93.6427V92.711L270.147 88.4727H271.153L270.817 100.508C275.431 91.8633 277.445 88.4727 282.145 88.4727C283.655 88.4727 284.745 89.0653 285.332 89.8289V96.1857H284.158C279.039 96.1857 275.517 96.6102 270.817 102.373V126.952L270.818 126.951Z" fill="#FAF6EE"/>
<path d="M323.341 97.1264C323.678 96.2002 323.844 95.5262 323.844 94.8522C323.844 92.8316 322.166 92.578 317.972 92.0735V89.8848H331.48V92.0735C328.375 92.8316 327.872 93.5056 327.201 95.1899L309.413 142.43C307.063 148.578 304.546 152.03 299.511 152.03C296.995 152.03 294.142 150.514 293.47 147.82V145.377C294.897 145.799 296.071 146.135 298.337 146.135C302.785 146.135 305.804 144.873 307.818 139.146L309.413 134.851L292.547 95.1899C291.792 93.4215 291.373 92.8316 288.268 92.0735V89.8848H306.811V92.0735C302.615 92.5794 300.938 92.8316 300.938 94.8522C300.938 95.5262 301.106 96.1988 301.441 97.2105L312.851 125.757L323.34 97.1264H323.341Z" fill="#FAF6EE"/>
</g>
<defs>
<clipPath id="clip0_105_2417">
<rect width="353" height="152.028" fill="white"/>
</clipPath>
</defs>
</svg>
